<?xml version="1.0" encoding="UTF-8"?>
<!DOCTYPE svg PUBLIC "-//W3C//DTD SVG 1.1//EN" "http://www.w3.org/Graphics/SVG/1.1/DTD/svg11.dtd">
<svg xmlns="http://www.w3.org/2000/svg" version="1.1" width="214px" height="148px" style="shape-rendering:geometricPrecision; text-rendering:geometricPrecision; image-rendering:optimizeQuality; fill-rule:evenodd; clip-rule:evenodd" xmlns:xlink="http://www.w3.org/1999/xlink">
<g><path style="opacity:1" fill="#fdfcfc" d="M -0.5,-0.5 C 70.8333,-0.5 142.167,-0.5 213.5,-0.5C 213.5,48.8333 213.5,98.1667 213.5,147.5C 142.167,147.5 70.8333,147.5 -0.5,147.5C -0.5,98.1667 -0.5,48.8333 -0.5,-0.5 Z"/></g>
<g><path style="opacity:1" fill="#c9c5c3" d="M 145.5,20.5 C 144.385,17.8612 142.385,16.1946 139.5,15.5C 139.052,11.4755 138.386,7.4755 137.5,3.5C 135.049,6.40032 133.715,9.73365 133.5,13.5C 132.325,13.281 131.325,13.6143 130.5,14.5C 129.692,16.9252 128.692,19.2585 127.5,21.5C 126.583,20.8728 125.583,20.5394 124.5,20.5C 125.209,19.596 126.209,19.2627 127.5,19.5C 127.422,15.8611 128.922,13.1944 132,11.5C 132.148,7.68728 133.648,4.52061 136.5,2C 137.448,1.51722 138.448,1.35055 139.5,1.5C 139.732,6.29236 140.565,10.959 142,15.5C 142.667,14.1667 143.333,14.1667 144,15.5C 145.009,17.0249 145.509,18.6916 145.5,20.5 Z"/></g>
<g><path style="opacity:1" fill="#ada7a5" d="M 123.5,15.5 C 122.833,15.5 122.5,15.1667 122.5,14.5C 122.119,13.0689 121.119,12.2355 119.5,12C 121.24,10.173 122.907,10.3397 124.5,12.5C 123.873,13.4168 123.539,14.4168 123.5,15.5 Z"/></g>
<g><path style="opacity:1" fill="#67605c" d="M 122.5,14.5 C 122.5,15.1667 122.833,15.5 123.5,15.5C 125.933,16.5477 125.933,17.2144 123.5,17.5C 122.749,16.4265 121.749,16.2599 120.5,17C 120.833,17.3333 121.167,17.6667 121.5,18C 120.552,18.4828 119.552,18.6495 118.5,18.5C 118.957,16.2273 120.29,14.894 122.5,14.5 Z"/></g>
<g><path style="opacity:1" fill="#edeeed" d="M 117.5,20.5 C 120.218,22.4226 119.884,23.756 116.5,24.5C 116.433,23.0413 116.766,21.7079 117.5,20.5 Z"/></g>
<g><path style="opacity:1" fill="#726b68" d="M 117.5,20.5 C 116.766,21.7079 116.433,23.0413 116.5,24.5C 113.782,22.5774 114.116,21.244 117.5,20.5 Z"/></g>
<g><path style="opacity:1" fill="#665f5b" d="M 180.5,21.5 C 181.822,21.33 182.989,21.6634 184,22.5C 184.495,24.4727 184.662,26.4727 184.5,28.5C 183.167,28.5 181.833,28.5 180.5,28.5C 180.5,26.1667 180.5,23.8333 180.5,21.5 Z"/></g>
<g><path style="opacity:1" fill="#69635f" d="M 118.5,18.5 C 119.29,19.7942 120.29,20.9609 121.5,22C 120.781,24.5562 119.114,25.7229 116.5,25.5C 116.5,25.1667 116.5,24.8333 116.5,24.5C 119.884,23.756 120.218,22.4226 117.5,20.5C 117.328,19.5084 117.662,18.8417 118.5,18.5 Z"/></g>
<g><path style="opacity:1" fill="#a39c9a" d="M 185.5,21.5 C 186.586,21.62 187.253,22.2867 187.5,23.5C 187.167,24.1667 186.833,24.8333 186.5,25.5C 185.571,24.3112 185.238,22.9778 185.5,21.5 Z"/></g>
<g><path style="opacity:1" fill="#847d7a" d="M 151.5,24.5 C 159.528,24.169 167.528,24.5023 175.5,25.5C 167.862,26.4975 160.196,26.8308 152.5,26.5C 152.167,26.5 151.833,26.5 151.5,26.5C 143.5,25.8333 143.5,25.1667 151.5,24.5 Z"/></g>
<g><path style="opacity:1" fill="#d8d5d4" d="M 181.5,25.5 C 183.337,25.6395 183.67,26.3061 182.5,27.5C 181.702,27.0431 181.369,26.3764 181.5,25.5 Z"/></g>
<g><path style="opacity:1" fill="#564f4b" d="M 107.5,29.5 C 108.116,30.2022 108.116,31.2022 107.5,32.5C 106.167,31.5 106.167,30.5 107.5,29.5 Z"/></g>
<g><path style="opacity:1" fill="#564e4a" d="M 111.5,32.5 C 109.965,33.3543 108.632,33.3543 107.5,32.5C 108.961,31.3143 110.295,31.3143 111.5,32.5 Z"/></g>
<g><path style="opacity:1" fill="#ccc8c7" d="M 151.5,26.5 C 151.833,26.5 152.167,26.5 152.5,26.5C 152.814,30.1473 154.814,32.1473 158.5,32.5C 160.879,35.7571 161.879,39.4238 161.5,43.5C 162.978,43.238 164.311,43.5713 165.5,44.5C 167.391,47.942 168.391,51.6087 168.5,55.5C 169.833,55.5 171.167,55.5 172.5,55.5C 174.09,58.9466 175.09,62.6133 175.5,66.5C 176.5,66.5 177.5,66.5 178.5,66.5C 178.784,68.4147 178.451,70.0813 177.5,71.5C 177.55,69.4099 176.55,68.0766 174.5,67.5C 173.604,63.7762 172.604,60.1096 171.5,56.5C 169.833,56.5 168.167,56.5 166.5,56.5C 166.85,52.9457 166.184,49.6124 164.5,46.5C 163.311,45.5713 161.978,45.238 160.5,45.5C 160.829,39.1495 158.329,34.4828 153,31.5C 151.991,29.9751 151.491,28.3084 151.5,26.5 Z"/></g>
<g><path style="opacity:1" fill="#5e5957" d="M 111.5,32.5 C 112.404,33.209 112.737,34.209 112.5,35.5C 111.833,35.5 111.167,35.5 110.5,35.5C 111.11,34.609 111.443,33.609 111.5,32.5 Z"/></g>
<g><path style="opacity:1" fill="#f1f2f0" d="M 139.5,15.5 C 138.312,14.3157 137.145,14.3157 136,15.5C 134.485,19.2102 132.485,22.5435 130,25.5C 129.187,27.4357 128.687,29.4357 128.5,31.5C 127.178,31.33 126.011,31.6634 125,32.5C 124.187,34.4357 123.687,36.4357 123.5,38.5C 120.643,39.333 117.977,40.6664 115.5,42.5C 114.652,44.4086 114.318,46.4086 114.5,48.5C 112.833,48.5 111.167,48.5 109.5,48.5C 108.439,51.8635 107.439,55.1968 106.5,58.5C 101.741,59.0329 100.408,61.5329 102.5,66C 101.263,66.2321 100.263,66.7321 99.5,67.5C 97.7773,69.78 97.1107,72.4467 97.5,75.5C 96.5,75.5 95.5,75.5 94.5,75.5C 94.8476,79.5784 94.1809,83.4117 92.5,87C 93.0712,89.5436 93.7379,92.0436 94.5,94.5C 92.7483,94.4176 91.7483,95.2509 91.5,97C 92.2741,99.1542 92.9408,101.321 93.5,103.5C 93.19,104.738 92.69,104.738 92,103.5C 89.1225,99.6633 87.6225,95.33 87.5,90.5C 88.5,90.5 89.5,90.5 90.5,90.5C 89.5155,87.1881 88.5155,83.8548 87.5,80.5C 90.0864,77.3855 91.0864,73.7189 90.5,69.5C 91.5,69.5 92.5,69.5 93.5,69.5C 93.5079,66.4552 93.8413,63.4552 94.5,60.5C 95.8333,60.5 97.1667,60.5 98.5,60.5C 98.2739,57.7508 98.6072,55.0841 99.5,52.5C 100.689,51.5713 102.022,51.238 103.5,51.5C 103.968,47.5561 105.301,43.8895 107.5,40.5C 109.045,39.5481 110.712,39.2148 112.5,39.5C 112.5,38.1667 112.5,36.8333 112.5,35.5C 112.737,34.209 112.404,33.209 111.5,32.5C 110.295,31.3143 108.961,31.3143 107.5,32.5C 108.116,31.2022 108.116,30.2022 107.5,29.5C 107.64,27.8762 106.973,26.7096 105.5,26C 106.5,25.5 107.5,25 108.5,24.5C 109.5,25.8333 110.5,25.8333 111.5,24.5C 112.548,25.548 113.548,26.548 114.5,27.5C 112.897,27.3118 111.563,27.8118 110.5,29C 111.549,29.4922 112.549,29.3256 113.5,28.5C 114.096,29.7161 114.263,31.0494 114,32.5C 115.269,31.0953 115.769,29.4286 115.5,27.5C 116.338,27.1583 116.672,26.4916 116.5,25.5C 119.114,25.7229 120.781,24.5562 121.5,22C 120.29,20.9609 119.29,19.7942 118.5,18.5C 119.552,18.6495 120.552,18.4828 121.5,18C 121.167,17.6667 120.833,17.3333 120.5,17C 121.749,16.2599 122.749,16.4265 123.5,17.5C 123.062,17.4346 122.728,17.6012 122.5,18C 123.066,18.9947 123.733,19.828 124.5,20.5C 125.583,20.5394 126.583,20.8728 127.5,21.5C 128.692,19.2585 129.692,16.9252 130.5,14.5C 131.325,13.6143 132.325,13.281 133.5,13.5C 133.715,9.73365 135.049,6.40032 137.5,3.5C 138.386,7.4755 139.052,11.4755 139.5,15.5 Z"/></g>
<g><path style="opacity:1" fill="#5e5854" d="M 114.5,27.5 C 114.833,27.5 115.167,27.5 115.5,27.5C 115.769,29.4286 115.269,31.0953 114,32.5C 114.263,31.0494 114.096,29.7161 113.5,28.5C 112.549,29.3256 111.549,29.4922 110.5,29C 111.563,27.8118 112.897,27.3118 114.5,27.5 Z"/></g>
<g><path style="opacity:1" fill="#f0f3f0" d="M 139.5,15.5 C 142.385,16.1946 144.385,17.8612 145.5,20.5C 148.226,20.8551 150.226,22.1885 151.5,24.5C 143.5,25.1667 143.5,25.8333 151.5,26.5C 151.491,28.3084 151.991,29.9751 153,31.5C 158.329,34.4828 160.829,39.1495 160.5,45.5C 161.978,45.238 163.311,45.5713 164.5,46.5C 166.184,49.6124 166.85,52.9457 166.5,56.5C 168.167,56.5 169.833,56.5 171.5,56.5C 172.604,60.1096 173.604,63.7762 174.5,67.5C 176.55,68.0766 177.55,69.4099 177.5,71.5C 175.926,73.1016 175.259,75.1016 175.5,77.5C 176.5,77.5 177.5,77.5 178.5,77.5C 178.722,80.3903 178.055,83.057 176.5,85.5C 177.611,86.6113 178.278,87.9446 178.5,89.5C 177.49,92.1828 176.49,94.8495 175.5,97.5C 174.864,103.452 172.197,108.119 167.5,111.5C 168.833,108.167 170.167,104.833 171.5,101.5C 172.11,100.609 172.443,99.609 172.5,98.5C 174.719,95.7962 175.052,92.7962 173.5,89.5C 175.179,86.9879 174.845,84.9879 172.5,83.5C 172.592,80.3552 172.259,77.0219 171.5,73.5C 170.394,70.297 169.061,67.297 167.5,64.5C 166.791,63.596 165.791,63.2627 164.5,63.5C 164.768,61.901 164.434,60.5676 163.5,59.5C 163.208,56.1991 161.541,54.1991 158.5,53.5C 158.346,49.5473 157.346,45.8806 155.5,42.5C 154.167,42.5 152.833,42.5 151.5,42.5C 151.592,37.3177 149.259,33.9844 144.5,32.5C 143.691,30.9291 143.357,29.2624 143.5,27.5C 142.167,27.5 140.833,27.5 139.5,27.5C 139.5,23.5 139.5,19.5 139.5,15.5 Z"/></g>
<g><path style="opacity:1" fill="#216542" d="M 139.5,15.5 C 139.5,19.5 139.5,23.5 139.5,27.5C 140.833,27.5 142.167,27.5 143.5,27.5C 143.357,29.2624 143.691,30.9291 144.5,32.5C 149.259,33.9844 151.592,37.3177 151.5,42.5C 152.833,42.5 154.167,42.5 155.5,42.5C 157.346,45.8806 158.346,49.5473 158.5,53.5C 161.541,54.1991 163.208,56.1991 163.5,59.5C 160.749,61.7448 158.082,64.2448 155.5,67C 153.892,67.658 152.725,67.158 152,65.5C 150.273,68.893 147.606,71.2264 144,72.5C 142.878,74.4205 142.044,76.4205 141.5,78.5C 137.601,80.0192 133.601,81.0192 129.5,81.5C 128.508,81.6716 127.842,81.3382 127.5,80.5C 127.389,79.8826 127.056,79.3826 126.5,79C 124.236,78.7638 122.069,78.2638 120,77.5C 118.411,72.8013 116.578,68.3013 114.5,64C 114.833,63.6667 115.167,63.3333 115.5,63C 113.968,62.3005 112.968,61.1338 112.5,59.5C 110.604,58.5344 108.604,58.2011 106.5,58.5C 107.439,55.1968 108.439,51.8635 109.5,48.5C 111.167,48.5 112.833,48.5 114.5,48.5C 114.318,46.4086 114.652,44.4086 115.5,42.5C 117.977,40.6664 120.643,39.333 123.5,38.5C 123.687,36.4357 124.187,34.4357 125,32.5C 126.011,31.6634 127.178,31.33 128.5,31.5C 128.687,29.4357 129.187,27.4357 130,25.5C 132.485,22.5435 134.485,19.2102 136,15.5C 137.145,14.3157 138.312,14.3157 139.5,15.5 Z"/></g>
<g><path style="opacity:1" fill="#276c4a" d="M 106.5,58.5 C 108.604,58.2011 110.604,58.5344 112.5,59.5C 112.968,61.1338 113.968,62.3005 115.5,63C 115.167,63.3333 114.833,63.6667 114.5,64C 116.578,68.3013 118.411,72.8013 120,77.5C 122.069,78.2638 124.236,78.7638 126.5,79C 127.056,79.3826 127.389,79.8826 127.5,80.5C 123.901,79.6561 120.234,79.3227 116.5,79.5C 116.804,78.8501 117.137,78.1835 117.5,77.5C 111.121,76.9875 106.455,73.9875 103.5,68.5C 102.264,67.7542 100.93,67.4208 99.5,67.5C 100.263,66.7321 101.263,66.2321 102.5,66C 100.408,61.5329 101.741,59.0329 106.5,58.5 Z"/></g>
<g><path style="opacity:1" fill="#9f9a97" d="M 81.5,70.5 C 82.5862,70.62 83.2528,71.2867 83.5,72.5C 83.1667,73.1667 82.8333,73.8333 82.5,74.5C 81.5713,73.3112 81.238,71.9778 81.5,70.5 Z"/></g>
<g><path style="opacity:1" fill="#716a66" d="M 76.5,71.5 C 79.2427,72.985 80.4093,75.3184 80,78.5C 79.3109,77.6433 78.4776,76.9767 77.5,76.5C 76.3914,77.5896 75.3914,77.5896 74.5,76.5C 75.1744,74.8045 75.8411,73.1379 76.5,71.5 Z"/></g>
<g><path style="opacity:1" fill="#2f7654" d="M 163.5,59.5 C 164.434,60.5676 164.768,61.901 164.5,63.5C 165.791,63.2627 166.791,63.596 167.5,64.5C 165.801,64.3398 164.134,64.5065 162.5,65C 158.431,68.0632 154.098,70.7299 149.5,73C 147.915,75.0693 146.581,77.236 145.5,79.5C 145.167,79.5 144.833,79.5 144.5,79.5C 143.791,78.596 142.791,78.2627 141.5,78.5C 142.044,76.4205 142.878,74.4205 144,72.5C 147.606,71.2264 150.273,68.893 152,65.5C 152.725,67.158 153.892,67.658 155.5,67C 158.082,64.2448 160.749,61.7448 163.5,59.5 Z"/></g>
<g><path style="opacity:1" fill="#9a9491" d="M 26.5,81.5 C 25.8333,81.5 25.1667,81.5 24.5,81.5C 24.9299,79.7128 24.9299,78.0461 24.5,76.5C 27.1932,77.5318 27.8598,79.1985 26.5,81.5 Z"/></g>
<g><path style="opacity:1" fill="#c7c4c2" d="M 110.5,35.5 C 111.167,35.5 111.833,35.5 112.5,35.5C 112.5,36.8333 112.5,38.1667 112.5,39.5C 110.712,39.2148 109.045,39.5481 107.5,40.5C 105.301,43.8895 103.968,47.5561 103.5,51.5C 102.022,51.238 100.689,51.5713 99.5,52.5C 98.6072,55.0841 98.2739,57.7508 98.5,60.5C 97.1667,60.5 95.8333,60.5 94.5,60.5C 93.8413,63.4552 93.5079,66.4552 93.5,69.5C 92.5,69.5 91.5,69.5 90.5,69.5C 91.0864,73.7189 90.0864,77.3855 87.5,80.5C 88.5155,83.8548 89.5155,87.1881 90.5,90.5C 89.5,90.5 88.5,90.5 87.5,90.5C 87.6225,95.33 89.1225,99.6633 92,103.5C 92.69,104.738 93.19,104.738 93.5,103.5C 95.664,105.822 97.3307,108.489 98.5,111.5C 90.894,106.2 86.5607,98.8667 85.5,89.5C 86.5,89.5 87.5,89.5 88.5,89.5C 87.9421,86.6557 87.2755,83.8224 86.5,81C 86.3875,79.3376 87.0542,78.1709 88.5,77.5C 89.487,74.2317 89.8204,70.8984 89.5,67.5C 90.5,67.5 91.5,67.5 92.5,67.5C 92.5,64.8333 92.5,62.1667 92.5,59.5C 93.9305,59.5792 95.2638,59.2458 96.5,58.5C 97.2136,55.9728 97.8803,53.4728 98.5,51C 99.7932,50.51 101.127,50.3433 102.5,50.5C 103.149,46.0202 104.815,41.8536 107.5,38C 108.784,37.3162 109.951,37.4829 111,38.5C 111.47,37.4232 111.303,36.4232 110.5,35.5 Z"/></g>
<g><path style="opacity:1" fill="#1d5e3e" d="M 167.5,64.5 C 167.782,67.9097 168.449,71.243 169.5,74.5C 167.51,75.8732 165.343,76.8732 163,77.5C 162.581,76.3279 161.915,75.3279 161,74.5C 157.442,76.3917 154.942,79.2251 153.5,83C 151.131,83.5359 149.131,84.7026 147.5,86.5C 146.893,86.3764 146.56,86.0431 146.5,85.5C 146.675,83.3792 146.341,81.3792 145.5,79.5C 146.581,77.236 147.915,75.0693 149.5,73C 154.098,70.7299 158.431,68.0632 162.5,65C 164.134,64.5065 165.801,64.3398 167.5,64.5 Z"/></g>
<g><path style="opacity:1" fill="#226141" d="M 99.5,67.5 C 100.93,67.4208 102.264,67.7542 103.5,68.5C 106.455,73.9875 111.121,76.9875 117.5,77.5C 117.137,78.1835 116.804,78.8501 116.5,79.5C 115.631,81.717 115.298,84.0504 115.5,86.5C 114.71,87.6085 114.21,88.9419 114,90.5C 111.442,87.3794 108.442,84.7128 105,82.5C 104.856,86.2321 106.023,89.5655 108.5,92.5C 115.34,94.0453 122.007,96.212 128.5,99C 123.113,99.7845 117.78,99.6178 112.5,98.5C 111.784,99.311 110.95,99.9777 110,100.5C 106.617,99.186 103.117,98.3527 99.5,98C 97.4156,97.3028 95.7489,96.1361 94.5,94.5C 93.7379,92.0436 93.0712,89.5436 92.5,87C 94.1809,83.4117 94.8476,79.5784 94.5,75.5C 95.5,75.5 96.5,75.5 97.5,75.5C 97.1107,72.4467 97.7773,69.78 99.5,67.5 Z"/></g>
<g><path style="opacity:1" fill="#7f9669" d="M 141.5,78.5 C 142.791,78.2627 143.791,78.596 144.5,79.5C 139.74,81.2398 134.74,81.9065 129.5,81.5C 133.601,81.0192 137.601,80.0192 141.5,78.5 Z"/></g>
<g><path style="opacity:1" fill="#625c58" d="M 24.5,81.5 C 25.1667,81.5 25.8333,81.5 26.5,81.5C 27.1667,81.8333 27.8333,82.1667 28.5,82.5C 27.6868,83.6527 26.6868,83.6527 25.5,82.5C 25.1667,82.8333 24.8333,83.1667 24.5,83.5C 25.5,84.3333 26.5,85.1667 27.5,86C 25.8739,85.8047 24.2072,85.8047 22.5,86C 23.056,86.3826 23.3893,86.8826 23.5,87.5C 22.5028,87.5299 21.8361,87.0299 21.5,86C 22.3479,84.3336 23.3479,82.8336 24.5,81.5 Z"/></g>
<g><path style="opacity:1" fill="#dfd5a6" d="M 116.5,79.5 C 120.234,79.3227 123.901,79.6561 127.5,80.5C 127.842,81.3382 128.508,81.6716 129.5,81.5C 134.74,81.9065 139.74,81.2398 144.5,79.5C 144.833,79.5 145.167,79.5 145.5,79.5C 146.341,81.3792 146.675,83.3792 146.5,85.5C 144.717,86.1135 143.384,87.2802 142.5,89C 138.167,89.6667 133.833,89.6667 129.5,89C 129,88.5 128.5,88 128,87.5C 126.806,88.4303 125.473,89.0969 124,89.5C 121.217,88.6895 118.383,88.6895 115.5,89.5C 115.5,88.5 115.5,87.5 115.5,86.5C 115.298,84.0504 115.631,81.717 116.5,79.5 Z"/></g>
<g><path style="opacity:1" fill="#d79869" d="M 125.5,82.5 C 126.947,84.8382 126.447,86.8382 124,88.5C 123.072,86.6652 121.906,86.3318 120.5,87.5C 118.967,85.711 117.967,83.711 117.5,81.5C 120.598,81.4125 120.932,81.9125 118.5,83C 119.416,83.3742 120.25,83.8742 121,84.5C 121.835,81.7312 123.335,81.0645 125.5,82.5 Z"/></g>
<g><path style="opacity:1" fill="#76706d" d="M 23.5,87.5 C 25.6877,88.5357 25.6877,90.0357 23.5,92C 22.5,92.3333 21.5,92.6667 20.5,93C 21.6843,94.1455 21.6843,95.3121 20.5,96.5C 17.6864,96.5973 15.6864,95.4307 14.5,93C 16.3173,91.2688 18.1507,89.4354 20,87.5C 21.4378,92.7956 22.6045,92.7956 23.5,87.5 Z"/></g>
<g><path style="opacity:1" fill="#ecefef" d="M 16.5,92.5 C 18.6859,92.5106 19.5192,93.5106 19,95.5C 17.583,94.9221 16.7496,93.9221 16.5,92.5 Z"/></g>
<g><path style="opacity:1" fill="#cac6c4" d="M 177.5,71.5 C 177.714,73.1439 177.38,74.6439 176.5,76C 178.521,76.4012 179.855,77.5679 180.5,79.5C 178.201,82.6285 178.201,85.6285 180.5,88.5C 180.105,92.2967 178.439,95.2967 175.5,97.5C 176.49,94.8495 177.49,92.1828 178.5,89.5C 178.278,87.9446 177.611,86.6113 176.5,85.5C 178.055,83.057 178.722,80.3903 178.5,77.5C 177.5,77.5 176.5,77.5 175.5,77.5C 175.259,75.1016 175.926,73.1016 177.5,71.5 Z"/></g>
<g><path style="opacity:1" fill="#387d5c" d="M 173.5,89.5 C 175.052,92.7962 174.719,95.7962 172.5,98.5C 172.5,97.5 172.5,96.5 172.5,95.5C 169.688,96.9582 166.688,97.9582 163.5,98.5C 156.853,98.6256 150.186,98.6256 143.5,98.5C 148.424,96.5936 153.424,94.9269 158.5,93.5C 159.784,94.585 161.284,95.2517 163,95.5C 166.141,94.6778 169.307,94.0112 172.5,93.5C 172.232,91.901 172.566,90.5676 173.5,89.5 Z"/></g>
<g><path style="opacity:1" fill="#605957" d="M 12.5,95.5 C 14.6125,96.4396 16.6125,97.6063 18.5,99C 15.6493,99.32 13.6493,98.1533 12.5,95.5 Z"/></g>
<g><path style="opacity:1" fill="#a5b857" d="M 48.5,113.5 C 44.6229,110.293 41.9562,106.293 40.5,101.5C 39.1266,101.343 37.7932,101.51 36.5,102C 34.6456,104.399 32.6456,106.566 30.5,108.5C 30.5,107.833 30.5,107.167 30.5,106.5C 33.1101,102.875 35.7767,99.2085 38.5,95.5C 41.6523,101.647 44.9856,107.647 48.5,113.5 Z"/></g>
<g><path style="opacity:1" fill="#2b6d4c" d="M 167.5,64.5 C 169.061,67.297 170.394,70.297 171.5,73.5C 172.259,77.0219 172.592,80.3552 172.5,83.5C 172.64,85.1238 171.973,86.2904 170.5,87C 167.207,88.6079 163.873,88.7745 160.5,87.5C 155.611,88.5552 150.944,90.2219 146.5,92.5C 140.444,91.1754 134.11,90.6754 127.5,91C 130.709,93.5074 132.376,96.8407 132.5,101C 131.874,101.75 131.374,102.584 131,103.5C 126.934,104.464 122.767,104.797 118.5,104.5C 119.922,109.091 122.922,112.257 127.5,114C 130.386,116.12 130.719,118.287 128.5,120.5C 127.522,120.023 126.689,119.357 126,118.5C 122.298,119.306 119.132,120.973 116.5,123.5C 112.571,121.867 108.904,119.867 105.5,117.5C 102.527,116.19 100.193,114.19 98.5,111.5C 97.3307,108.489 95.664,105.822 93.5,103.5C 92.9408,101.321 92.2741,99.1542 91.5,97C 91.7483,95.2509 92.7483,94.4176 94.5,94.5C 95.7489,96.1361 97.4156,97.3028 99.5,98C 103.117,98.3527 106.617,99.186 110,100.5C 110.95,99.9777 111.784,99.311 112.5,98.5C 117.78,99.6178 123.113,99.7845 128.5,99C 122.007,96.212 115.34,94.0453 108.5,92.5C 106.023,89.5655 104.856,86.2321 105,82.5C 108.442,84.7128 111.442,87.3794 114,90.5C 114.21,88.9419 114.71,87.6085 115.5,86.5C 115.5,87.5 115.5,88.5 115.5,89.5C 118.383,88.6895 121.217,88.6895 124,89.5C 125.473,89.0969 126.806,88.4303 128,87.5C 128.5,88 129,88.5 129.5,89C 133.833,89.6667 138.167,89.6667 142.5,89C 143.384,87.2802 144.717,86.1135 146.5,85.5C 146.56,86.0431 146.893,86.3764 147.5,86.5C 149.131,84.7026 151.131,83.5359 153.5,83C 154.942,79.2251 157.442,76.3917 161,74.5C 161.915,75.3279 162.581,76.3279 163,77.5C 165.343,76.8732 167.51,75.8732 169.5,74.5C 168.449,71.243 167.782,67.9097 167.5,64.5 Z"/></g>
<g><path style="opacity:1" fill="#f9dfb6" d="M 125.5,82.5 C 125.762,83.9778 125.429,85.3112 124.5,86.5C 124.167,85.8333 123.833,85.1667 123.5,84.5C 123.747,83.2867 124.414,82.62 125.5,82.5 Z"/></g>
<g><path style="opacity:1" fill="#daa270" d="M 130.5,82.5 C 133.85,82.335 137.183,82.5017 140.5,83C 141.747,84.4936 141.747,85.9936 140.5,87.5C 139.749,86.624 139.249,85.624 139,84.5C 138,88.5 137,88.5 136,84.5C 134.623,88.2649 133.623,87.9316 133,83.5C 132.075,84.0465 131.242,84.7132 130.5,85.5C 131.506,86.3957 131.506,87.0623 130.5,87.5C 129.334,85.8327 129.334,84.166 130.5,82.5 Z"/></g>
<g><path style="opacity:1" fill="#8eac38" d="M 48.5,113.5 C 49.404,114.209 49.7373,115.209 49.5,116.5C 49.9992,122.058 49.3326,127.392 47.5,132.5C 47.5,132.833 47.5,133.167 47.5,133.5C 44.4223,135.369 41.089,136.702 37.5,137.5C 35.4352,137.483 33.4352,137.15 31.5,136.5C 29.614,135.07 27.9473,133.403 26.5,131.5C 26.1667,131.5 25.8333,131.5 25.5,131.5C 24.7643,123.874 25.7643,116.541 28.5,109.5C 28.9569,108.702 29.6236,108.369 30.5,108.5C 32.6456,106.566 34.6456,104.399 36.5,102C 37.7932,101.51 39.1266,101.343 40.5,101.5C 41.9562,106.293 44.6229,110.293 48.5,113.5 Z"/></g>
<g><path style="opacity:1" fill="#174e31" d="M 165.5,112.5 C 165.5,113.167 165.167,113.5 164.5,113.5C 159.582,112.719 154.582,112.219 149.5,112C 154.188,109.8 159.021,109.3 164,110.5C 165.03,110.836 165.53,111.503 165.5,112.5 Z"/></g>
<g><path style="opacity:1" fill="#f1f3e0" d="M 30.5,106.5 C 30.5,107.167 30.5,107.833 30.5,108.5C 29.6236,108.369 28.9569,108.702 28.5,109.5C 25.7643,116.541 24.7643,123.874 25.5,131.5C 24.1987,128.209 23.1987,124.709 22.5,121C 23.7376,118.285 23.7376,115.618 22.5,113C 25.0405,111.96 26.7071,110.126 27.5,107.5C 28.4168,106.873 29.4168,106.539 30.5,106.5 Z"/></g>
<g><path style="opacity:1" fill="#2e724f" d="M 171.5,101.5 C 170.167,104.833 168.833,108.167 167.5,111.5C 166.833,111.833 166.167,112.167 165.5,112.5C 165.53,111.503 165.03,110.836 164,110.5C 159.021,109.3 154.188,109.8 149.5,112C 154.582,112.219 159.582,112.719 164.5,113.5C 163.5,115.167 162.167,116.5 160.5,117.5C 158.312,114.994 155.645,114.327 152.5,115.5C 156.989,116.473 157.322,117.807 153.5,119.5C 149.231,116.405 144.565,114.738 139.5,114.5C 142.69,114.11 145.357,112.777 147.5,110.5C 144.215,109.676 140.882,109.176 137.5,109C 138.5,108 139.5,107 140.5,106C 143.833,105.667 147.167,105.333 150.5,105C 153.183,101.654 154.516,101.821 154.5,105.5C 160.512,104.243 166.178,102.909 171.5,101.5 Z"/></g>
<g><path style="opacity:1" fill="#22623d" d="M 172.5,83.5 C 174.845,84.9879 175.179,86.9879 173.5,89.5C 172.566,90.5676 172.232,91.901 172.5,93.5C 169.307,94.0112 166.141,94.6778 163,95.5C 161.284,95.2517 159.784,94.585 158.5,93.5C 153.424,94.9269 148.424,96.5936 143.5,98.5C 150.186,98.6256 156.853,98.6256 163.5,98.5C 166.688,97.9582 169.688,96.9582 172.5,95.5C 172.5,96.5 172.5,97.5 172.5,98.5C 172.443,99.609 172.11,100.609 171.5,101.5C 166.178,102.909 160.512,104.243 154.5,105.5C 154.516,101.821 153.183,101.654 150.5,105C 147.167,105.333 143.833,105.667 140.5,106C 139.5,107 138.5,108 137.5,109C 140.882,109.176 144.215,109.676 147.5,110.5C 145.357,112.777 142.69,114.11 139.5,114.5C 138.504,114.586 137.671,114.252 137,113.5C 136.667,111.833 136.333,110.167 136,108.5C 135.667,114.167 135.333,119.833 135,125.5C 133.176,126.749 133.343,127.915 135.5,129C 134.5,129.667 133.5,129.667 132.5,129C 131.711,126.635 130.544,124.468 129,122.5C 125.35,124.046 121.516,124.713 117.5,124.5C 116.833,124.5 116.5,124.167 116.5,123.5C 119.132,120.973 122.298,119.306 126,118.5C 126.689,119.357 127.522,120.023 128.5,120.5C 130.719,118.287 130.386,116.12 127.5,114C 122.922,112.257 119.922,109.091 118.5,104.5C 122.767,104.797 126.934,104.464 131,103.5C 131.374,102.584 131.874,101.75 132.5,101C 132.376,96.8407 130.709,93.5074 127.5,91C 134.11,90.6754 140.444,91.1754 146.5,92.5C 150.944,90.2219 155.611,88.5552 160.5,87.5C 163.873,88.7745 167.207,88.6079 170.5,87C 171.973,86.2904 172.64,85.1238 172.5,83.5 Z"/></g>
<g><path style="opacity:1" fill="#1b5939" d="M 105.5,117.5 C 105.5,116.167 105.5,114.833 105.5,113.5C 110.468,113.134 110.134,112.634 104.5,112C 104.833,111.667 105.167,111.333 105.5,111C 101.541,111.349 98.8741,109.683 97.5,106C 97.8333,105.667 98.1667,105.333 98.5,105C 96.5188,104.395 96.1854,103.395 97.5,102C 96.5,101 95.5,100 94.5,99C 98.8654,99.5065 103.199,100.506 107.5,102C 105,102.375 102.667,103.208 100.5,104.5C 99.1667,105.167 99.1667,105.833 100.5,106.5C 107.151,109.747 114.151,111.913 121.5,113C 122.357,113.689 123.023,114.522 123.5,115.5C 122.005,116.112 120.338,116.112 118.5,115.5C 115.434,116.451 112.601,117.784 110,119.5C 108.67,118.418 107.17,117.751 105.5,117.5 Z"/></g>
<g><path style="opacity:1" fill="#839f3f" d="M 41.5,127.5 C 42.0325,122.203 42.8658,122.203 44,127.5C 44.4935,125.866 44.6602,124.199 44.5,122.5C 42.1667,122.5 39.8333,122.5 37.5,122.5C 37.3466,128.324 38.0133,128.657 39.5,123.5C 40.4287,124.689 40.762,126.022 40.5,127.5C 36.5,128.833 32.5,128.833 28.5,127.5C 31.1623,126.361 33.829,126.194 36.5,127C 33.8333,125.667 33.8333,124.333 36.5,123C 34.6332,122.289 33.1332,122.789 32,124.5C 31.1667,123.667 30.3333,122.833 29.5,122C 30.4158,121.722 31.0825,121.222 31.5,120.5C 32.404,119.791 32.7373,118.791 32.5,117.5C 35.5176,117.506 38.1843,118.506 40.5,120.5C 41.2621,119.372 41.9288,118.205 42.5,117C 43.1667,116.333 43.8333,116.333 44.5,117C 45.9116,118.413 46.9116,120.08 47.5,122C 46.3818,124.059 45.7151,126.226 45.5,128.5C 43.901,128.768 42.5676,128.434 41.5,127.5 Z"/></g>
<g><path style="opacity:1" fill="#bbb6b4" d="M 47.5,133.5 C 47.5,133.167 47.5,132.833 47.5,132.5C 48.4916,132.672 49.1583,132.338 49.5,131.5C 51.288,131.785 52.9547,131.452 54.5,130.5C 55.6405,129.575 55.6405,128.741 54.5,128C 55.448,127.517 56.448,127.351 57.5,127.5C 58.5531,120.536 58.7197,113.536 58,106.5C 56.2589,103.691 55.0922,100.691 54.5,97.5C 51.6334,96.3134 49.3,94.3134 47.5,91.5C 46.5721,90.2322 46.4054,88.8989 47,87.5C 47.6429,89.9302 49.1429,91.5968 51.5,92.5C 52.2458,93.7362 52.5792,95.0695 52.5,96.5C 53.5,96.5 54.5,96.5 55.5,96.5C 57.3085,99.9936 58.9751,103.66 60.5,107.5C 59.7207,112.497 59.7207,117.33 60.5,122C 59.5772,125.457 57.9105,128.457 55.5,131C 60.8642,131.171 66.1975,131.671 71.5,132.5C 63.5277,133.498 55.5277,133.831 47.5,133.5 Z"/></g>
<g><path style="opacity:1" fill="#807975" d="M 180.5,116.5 C 182.665,116.116 184.332,116.783 185.5,118.5C 185.12,120.021 184.954,121.687 185,123.5C 183.644,124.38 182.144,124.714 180.5,124.5C 180.5,121.833 180.5,119.167 180.5,116.5 Z"/></g>
<g><path style="opacity:1" fill="#3d3f39" d="M 158.5,120.5 C 164.026,120.179 169.36,120.512 174.5,121.5C 167.412,121.205 160.412,121.538 153.5,122.5C 150.784,122.322 148.117,121.822 145.5,121C 149.821,120.501 154.154,120.334 158.5,120.5 Z"/></g>
<g><path style="opacity:1" fill="#ccc9c7" d="M 26.5,131.5 C 27.9473,133.403 29.614,135.07 31.5,136.5C 20.9234,135.104 15.5901,129.27 15.5,119C 14.6433,118.311 13.9767,117.478 13.5,116.5C 15.1519,113.082 15.9853,109.415 16,105.5C 17.7317,102.606 19.2317,99.6057 20.5,96.5C 21.6843,95.3121 21.6843,94.1455 20.5,93C 21.5,92.6667 22.5,92.3333 23.5,92C 25.6877,90.0357 25.6877,88.5357 23.5,87.5C 23.3893,86.8826 23.056,86.3826 22.5,86C 24.2072,85.8047 25.8739,85.8047 27.5,86C 26.5,85.1667 25.5,84.3333 24.5,83.5C 24.8333,83.1667 25.1667,82.8333 25.5,82.5C 26.6868,83.6527 27.6868,83.6527 28.5,82.5C 29.4584,82.0472 30.2917,81.3805 31,80.5C 31.1953,82.2072 31.1953,83.8739 31,85.5C 34.0791,81.6756 36.9124,77.6756 39.5,73.5C 50.0001,75.1161 60.6668,76.1161 71.5,76.5C 60.6053,77.8191 49.772,77.8191 39,76.5C 37.1139,81.7183 33.7805,85.7183 29,88.5C 25.5063,92.9549 22.173,97.6215 19,102.5C 16.4481,111.261 16.4481,119.928 19,128.5C 20.8962,130.53 23.0629,132.197 25.5,133.5C 26.2975,133.043 26.6309,132.376 26.5,131.5 Z"/></g>
<g><path style="opacity:1" fill="#c3c2c1" d="M 174.5,121.5 C 167.632,122.235 160.632,122.902 153.5,123.5C 153.5,123.167 153.5,122.833 153.5,122.5C 160.412,121.538 167.412,121.205 174.5,121.5 Z"/></g>
<g><path style="opacity:1" fill="#4b5d30" d="M 31.5,120.5 C 31.0825,121.222 30.4158,121.722 29.5,122C 30.3333,122.833 31.1667,123.667 32,124.5C 33.1332,122.789 34.6332,122.289 36.5,123C 33.8333,124.333 33.8333,125.667 36.5,127C 33.829,126.194 31.1623,126.361 28.5,127.5C 29.0906,126.849 29.7573,126.182 30.5,125.5C 28.9951,124.158 28.3285,122.492 28.5,120.5C 29.5,120.5 30.5,120.5 31.5,120.5 Z"/></g>
<g><path style="opacity:1" fill="#326644" d="M 139.5,114.5 C 144.565,114.738 149.231,116.405 153.5,119.5C 157.322,117.807 156.989,116.473 152.5,115.5C 155.645,114.327 158.312,114.994 160.5,117.5C 159.833,118.5 159.167,119.5 158.5,120.5C 154.154,120.334 149.821,120.501 145.5,121C 148.117,121.822 150.784,122.322 153.5,122.5C 153.5,122.833 153.5,123.167 153.5,123.5C 148.168,126.327 142.502,128.327 136.5,129.5C 135.301,135.293 133.635,140.959 131.5,146.5C 131.167,146 130.833,145.5 130.5,145C 131.181,140.906 132.181,136.906 133.5,133C 133.167,132.167 132.833,131.333 132.5,130.5C 127.5,128.154 122.5,126.154 117.5,124.5C 121.516,124.713 125.35,124.046 129,122.5C 130.544,124.468 131.711,126.635 132.5,129C 133.5,129.667 134.5,129.667 135.5,129C 133.343,127.915 133.176,126.749 135,125.5C 135.333,119.833 135.667,114.167 136,108.5C 136.333,110.167 136.667,111.833 137,113.5C 137.671,114.252 138.504,114.586 139.5,114.5 Z"/></g>
<g><path style="opacity:1" fill="#374629" d="M 41.5,127.5 C 41.1667,127.5 40.8333,127.5 40.5,127.5C 40.762,126.022 40.4287,124.689 39.5,123.5C 38.0133,128.657 37.3466,128.324 37.5,122.5C 39.8333,122.5 42.1667,122.5 44.5,122.5C 44.6602,124.199 44.4935,125.866 44,127.5C 42.8658,122.203 42.0325,122.203 41.5,127.5 Z"/></g>
<g><path style="opacity:1" fill="#c3cc91" d="M 49.5,116.5 C 50.7999,121.4 50.7999,126.4 49.5,131.5C 49.1583,132.338 48.4916,132.672 47.5,132.5C 49.3326,127.392 49.9992,122.058 49.5,116.5 Z"/></g>
<g><path style="opacity:1" fill="#69615d" d="M 77.5,128.5 C 79.6102,130.328 80.4435,132.661 80,135.5C 79.3109,134.643 78.4776,133.977 77.5,133.5C 76.7425,134.811 75.7425,135.311 74.5,135C 75.4059,132.779 76.4059,130.612 77.5,128.5 Z"/></g>
<g><path style="opacity:1" fill="#dbdcc9" d="M 47.5,133.5 C 46.1313,137.917 43.1313,139.583 38.5,138.5C 38.477,140.927 37.977,143.26 37,145.5C 36.5702,142.808 36.7369,140.141 37.5,137.5C 41.089,136.702 44.4223,135.369 47.5,133.5 Z"/></g>
</svg>
